<svg height="511pt" viewBox="-21 1 511 511.99896" width="511pt" xmlns="http://www.w3.org/2000/svg"><path d="m449.359375 309.921875-61.457031 16.46875-45.007813-25.984375v-88.8125l45.007813-25.984375 61.457031 16.464844c8.332031 2.234375 16.886719-2.714844 19.117187-11.039063 2.234376-8.324218-2.707031-16.886718-11.035156-19.117187l-31.304687-8.386719 24.609375-14.207031c7.464844-4.3125 10.023437-13.859375 5.710937-21.324219-4.308593-7.464844-13.855469-10.023438-21.320312-5.714844l-24.609375 14.207032 8.386718-31.300782c2.230469-8.328125-2.710937-16.886718-11.039062-19.117187-8.328125-2.234375-16.886719 2.707031-19.117188 11.035156l-16.46875 61.460937-45.003906 25.984376-76.917968-44.410157v-51.964843l44.992187-44.992188c6.09375-6.097656 6.09375-15.980469 0-22.074219-6.097656-6.097656-15.980469-6.097656-22.078125 0l-22.914062 22.914063v-28.417969c0-8.621094-6.992188-15.609375-15.613282-15.609375s-15.609375 6.988281-15.609375 15.609375v28.417969l-22.914062-22.917969c-6.09375-6.09375-15.976563-6.09375-22.074219 0-6.097656 6.097656-6.097656 15.980469 0 22.078125l44.988281 44.988281v51.96875l-76.914062 44.410157-45.007813-25.984376-16.464844-61.460937c-2.234374-8.328125-10.792968-13.265625-19.121093-11.035156s-13.269531 10.789062-11.039063 19.117187l8.390625 31.300782-24.609375-14.207032c-7.46875-4.308594-17.015625-1.75-21.324218 5.714844-4.3125 7.464844-1.753907 17.011719 5.714843 21.324219l24.605469 14.207031-31.300781 8.386719c-8.328125 2.230469-13.269531 10.792969-11.039063 19.117187 2.230469 8.324219 10.78125 13.273438 19.117188 11.039063l61.460937-16.464844 45.003907 25.984375v88.8125l-45.003907 25.984375-61.460937-16.46875c-8.328125-2.230469-16.886719 2.710937-19.117188 11.039063-2.230468 8.328124 2.710938 16.886718 11.039063 19.121093l31.300781 8.386719-24.605469 14.207031c-7.46875 4.308594-10.027343 13.859375-5.714843 21.324219 4.3125 7.46875 13.859374 10.023438 21.324218 5.710938l24.609375-14.207032-8.390625 31.304688c-2.230468 8.328125 2.710938 16.886718 11.039063 19.117187s16.886719-2.710937 19.121093-11.039062l16.464844-61.457031 45.007813-25.984376 76.914062 44.40625v51.96875l-44.988281 44.992188c-6.097656 6.097656-6.097656 15.980469 0 22.074219 6.09375 6.097656 15.980469 6.097656 22.074219 0l22.917969-22.914063v28.414063c0 8.621093 6.988281 15.613281 15.609374 15.613281 8.621094 0 15.609376-6.992188 15.609376-15.613281v-28.414063l22.914062 22.914063c6.097656 6.097656 15.980469 6.097656 22.078125 0 6.097656-6.09375 6.097656-15.976563 0-22.074219l-44.992187-44.992188v-51.96875l76.917968-44.40625 45.007813 25.984376 16.464843 61.457031c1.871094 6.976562 8.175782 11.574219 15.070313 11.574219 10.265625 0 17.742187-9.746094 15.085937-19.652344l-8.386718-31.304688 24.609375 14.207032c7.46875 4.3125 17.015625 1.753906 21.324219-5.710938 4.308593-7.464844 1.753906-17.015625-5.714844-21.324219l-24.605469-14.207031 31.300781-8.386719c8.328125-2.234375 13.269532-10.792969 11.039063-19.121093-2.234375-8.328126-10.789063-13.269532-19.121094-11.039063zm-137.6875-27.539063-45.695313-26.382812 45.695313-26.382812zm-15.609375-79.804687-45.695312 26.382813v-52.761719zm-76.914062-26.382813v52.765626l-45.699219-26.382813zm-61.308594 53.421876 45.695312 26.382812-45.695312 26.382812zm15.609375 79.804687 45.699219-26.382813v52.761719zm76.917969 26.382813v-52.765626l45.695312 26.382813zm0 0"/><path d="m336.316406 112.382812c0 10.058594-8.152344 18.214844-18.210937 18.214844-10.058594 0-18.214844-8.15625-18.214844-18.214844 0-10.058593 8.15625-18.210937 18.214844-18.210937 10.058593 0 18.210937 8.152344 18.210937 18.210937zm0 0"/><path d="m96.511719 256c0 10.058594-8.152344 18.210938-18.210938 18.210938-10.058593 0-18.210937-8.152344-18.210937-18.210938s8.152344-18.210938 18.210937-18.210938c10.058594 0 18.210938 8.152344 18.210938 18.210938zm0 0"/><path d="m409.425781 256c0 10.058594-8.15625 18.210938-18.210937 18.210938-10.058594 0-18.214844-8.152344-18.214844-18.210938s8.15625-18.210938 18.214844-18.210938c10.054687 0 18.210937 8.152344 18.210937 18.210938zm0 0"/><path d="m172.40625 112.382812c0 10.058594-8.152344 18.214844-18.210938 18.214844-10.058593 0-18.214843-8.15625-18.214843-18.214844 0-10.058593 8.15625-18.210937 18.214843-18.210937 10.058594 0 18.210938 8.152344 18.210938 18.210937zm0 0"/><path d="m334.925781 399.617188c0 10.058593-8.15625 18.210937-18.214843 18.210937-10.058594 0-18.210938-8.152344-18.210938-18.210937 0-10.058594 8.152344-18.210938 18.210938-18.210938 10.058593 0 18.214843 8.152344 18.214843 18.210938zm0 0"/><path d="m171.015625 399.617188c0 10.058593-8.15625 18.210937-18.214844 18.210937-10.054687 0-18.210937-8.152344-18.210937-18.210937 0-10.058594 8.15625-18.210938 18.210937-18.210938 10.058594 0 18.214844 8.152344 18.214844 18.210938zm0 0"/></svg>